<?xml version="1.0" encoding="UTF-8" standalone="no"?>
<!-- Created with Inkscape (http://www.inkscape.org/) -->

<svg
   width="10mm"
   height="10mm"
   viewBox="0 0 10 10"
   version="1.1"
   id="svg2248"
   inkscape:version="1.1.2 (0a00cf5339, 2022-02-04, custom)"
   sodipodi:docname="obs-logo.svg"
   xmlns:inkscape="http://www.inkscape.org/namespaces/inkscape"
   xmlns:sodipodi="http://sodipodi.sourceforge.net/DTD/sodipodi-0.dtd"
   xmlns="http://www.w3.org/2000/svg"
   xmlns:svg="http://www.w3.org/2000/svg">
  <sodipodi:namedview
     id="namedview2250"
     pagecolor="#ffffff"
     bordercolor="#666666"
     borderopacity="1.0"
     inkscape:pageshadow="2"
     inkscape:pageopacity="0.0"
     inkscape:pagecheckerboard="0"
     inkscape:document-units="mm"
     showgrid="false"
     inkscape:zoom="17.597674"
     inkscape:cx="30.003966"
     inkscape:cy="20.798204"
     inkscape:window-width="2560"
     inkscape:window-height="1368"
     inkscape:window-x="0"
     inkscape:window-y="0"
     inkscape:window-maximized="1"
     inkscape:current-layer="layer1" />
  <defs
     id="defs2245" />
  <g
     inkscape:label="F.SilkS"
     inkscape:groupmode="layer"
     id="layer1">
    <path
       id="polygon893"
       d="m 4.3491351,0.48547267 c -0.396875,0 -0.6934977,0.359813 -0.6934975,1.16943793 v 0.418062 c 0,0.177594 0.015423,0.33282 0.042375,0.468705 0.094316,0.475501 0.3403989,0.700733 0.6511229,0.700733 0.396875,0 0.6903972,-0.370396 0.6903972,-1.169438 v -0.418062 c 0,-0.369664 -0.06208,-0.644402 -0.1663981,-0.83509093 -0.1241557,-0.226952 -0.3083319,-0.334347 -0.5239995,-0.334347 z m 0.9523968,0.03721 V 3.2031396 h 0.4232299 v -0.904855 h 0.2382285 c 0.032171,0 0.062809,-0.0029 0.093017,-0.0067 0.3523901,-0.04489 0.5684409,-0.349828 0.5684409,-0.898137 0,-0.56391093 -0.2375905,-0.84054793 -0.5999636,-0.86816393 -0.020177,-0.0015 -0.040561,-0.0026 -0.061495,-0.0026 z m 1.5053345,0 V 3.2031396 H 7.9127419 V 2.6682886 H 7.2275126 V 2.0838276 H 7.8362609 V 1.5494936 H 7.2275126 V 1.0596006 H 7.9127419 V 0.52268267 Z m 1.3229166,0 V 3.2031396 h 0.396875 v -1.48208 l 0.6428547,1.48208 H 9.511094 V 0.52268267 H 9.114219 V 2.0280176 L 8.4656798,0.52268267 Z m -7.56956403,0.375688 V 2.7054956 H 1.0893859 V 2.0652246 H 3.2535948 V 1.5360576 H 1.0893859 V 0.89837067 Z M 4.3491351,1.0203266 c 0.1066197,0 0.18234,0.07534 0.2247927,0.237195 0.026024,0.09922 0.039791,0.230473 0.039791,0.397392 v 0.418062 c 0,0.439209 -0.092604,0.63252 -0.2645834,0.63252 -0.1719791,0 -0.2645833,-0.193311 -0.2645833,-0.63252 v -0.0987 -0.31936 c 0,-0.439208 0.092604,-0.634587 0.2645833,-0.634587 z m 1.3756267,0.03927 h 0.1612305 c 0.057878,0 0.1070983,0.0083 0.1483114,0.02377 0.1170434,0.04405 0.1694987,0.1496 0.1694987,0.310058 0,0.188502 -0.049438,0.295101 -0.1576131,0.341581 -0.043661,0.01876 -0.096288,0.02842 -0.160197,0.02842 H 5.7247618 Z m -3.5822101,2.598291 v 2.680457 h 0.420646 v -2.680457 z m 0.7513751,0 v 2.680457 H 3.314573 v -0.709001 l 0.153479,-0.320393 0.3782716,1.029394 H 4.3491351 L 3.7378029,4.7425766 4.2561177,3.6578876 H 3.7667417 L 3.314573,4.6526596 v -0.994772 z m 1.6453776,0 v 2.680457 H 5.6451802 V 5.8040106 H 4.9599506 V 5.2190326 H 5.5686989 V 4.6846986 H 4.9599506 v -0.489376 h 0.6852296 v -0.537435 z m -3.97650143,0.0026 v 2.677864 h 0.58032693 0.08371 c 0.465667,0 0.6537072,-0.341354 0.6537072,-0.769979 A 0.73024999,0.73024999 0 0 0 1.6288829,4.9306856 0.71966666,0.71966666 0 0 0 1.8299042,4.3725796 c 0,-0.472923 -0.2248923,-0.695975 -0.6123653,-0.71055 -0.01356,-5.03e-4 -0.02686,-0.0016 -0.04082,-0.0016 z m 8.41343983,0.38654 v 0.637687 H 5.939219 v 0.534334 h 3.0370238 v 0.635104 H 9.511094 V 4.0470186 Z M 0.98603293,4.1896456 H 1.1234919 c 0.02932,0 0.05571,0.0017 0.07958,0.0047 0.16567,0.02068 0.206189,0.111922 0.206189,0.259933 0,0.160126 -0.06949,0.227189 -0.220141,0.234094 -0.0087,3.97e-4 -0.01663,0.0016 -0.02584,0.0016 H 0.98602993 Z m 0,1.026811 H 1.1555319 c 0.0068,0 0.01252,8.73e-4 0.01912,0.001 0.200143,0.0046 0.290422,0.07987 0.290422,0.289905 0,0.216959 -0.09016,0.296623 -0.278019,0.296623 h -0.02894 -0.17208297 z m 0.17208297,1.537373 c -0.42597893,0 -0.61649993,0.330647 -0.61649993,0.775147 a 0.83343749,0.83343749 0 0 0 0.50797893,0.841292 c 0.264583,0.129646 0.330729,0.206148 0.330729,0.362252 A 0.20902083,0.20902083 0 0 1 1.1529479,8.9655816 0.37041666,0.37041666 0 0 1 0.80361493,8.7247696 L 0.48890597,9.0741016 A 0.71437499,0.71437499 0 0 0 1.1896379,9.5133514 c 0.396875,0 0.611332,-0.3148538 0.611332,-0.7937498 a 0.77787499,0.77787499 0 0 0 -0.526582,-0.849561 c -0.219605,-0.0979 -0.31212597,-0.187482 -0.31212597,-0.346232 0,-0.15875 0.06079,-0.23306 0.20102097,-0.23306 0.140229,0 0.243334,0.06612 0.312126,0.243396 l 0.312126,-0.341065 a 0.65616666,0.65616666 0 0 0 -0.629419,-0.43925 z m 4.465877,0 c -0.428625,0 -0.6190837,0.330647 -0.6190837,0.775147 a 0.83343749,0.83343749 0 0 0 0.5188312,0.841292 c 0.2645833,0.129646 0.3307292,0.206148 0.3307292,0.362252 A 0.20902083,0.20902083 0 0 1 5.6296772,8.9655816 0.3730625,0.3730625 0 0 1 5.2777607,8.7247696 l -0.3152261,0.33848 a 0.71702082,0.71702082 0 0 0 0.701249,0.4392499 c 0.3995208,0 0.6139161,-0.3148539 0.6139161,-0.7937499 a 0.77787499,0.77787499 0 0 0 -0.526583,-0.838709 c -0.22225,-0.0979 -0.3121255,-0.187482 -0.3121255,-0.346232 0,-0.15875 0.060792,-0.23306 0.2010214,-0.23306 0.1402292,0 0.2433339,0.06612 0.3121255,0.243396 l 0.3017904,-0.341065 a 0.65881249,0.65881249 0 0 0 -0.6299356,-0.43925 z m 1.5347899,0 c -0.2729481,0 -0.4952796,0.169292 -0.6087483,0.533818 -0.052618,0.16904 -0.081649,0.37996 -0.081649,0.63562 v 0.420646 c 0,0.79375 0.2908763,1.1694378 0.6903971,1.1694378 0.1827514,0 0.3402902,-0.078679 0.45837,-0.2392618 0.1400593,-0.190473 0.2242757,-0.496637 0.2242757,-0.930176 v -0.420646 c 0,-0.806979 -0.2857707,-1.169438 -0.6826455,-1.169438 z m -5.1278524,0.03927 V 9.4735567 H 3.1373229 V 8.9366366 H 2.4520933 V 8.3542426 H 3.0603251 V 7.8199086 H 2.4520933 v -0.489376 h 0.6852296 v -0.537435 z m 1.3229166,0 V 9.4735567 H 3.750722 V 7.9894096 L 4.3940937,9.4735567 H 4.7351583 V 6.7930996 h -0.396875 v 1.503268 L 3.6876768,6.7930996 Z m 4.7521648,0 v 0.06666 2.6137941 H 8.526658 V 8.4601786 H 8.7436989 L 9.037221,9.4735537 H 9.5002418 L 9.1643451,8.3464906 a 0.81491666,0.81491666 0 0 0 0.2692342,-0.654224 0.81491666,0.81491666 0 0 0 -0.00465,-0.05478 c 0,-0.560916 -0.2645214,-0.844392 -0.6640422,-0.844393 z m -0.947229,0.497645 c 0.1719792,0 0.2645834,0.193311 0.2645834,0.632519 v 0.418062 c 0,0.206049 -0.021066,0.355686 -0.060462,0.458887 -0.04458,0.11678 -0.1128241,0.173116 -0.2041218,0.173116 -0.1719791,0 -0.2645833,-0.192794 -0.2645833,-0.632003 v -0.413411 -0.0047 c 0,-0.439209 0.092604,-0.63252 0.2645833,-0.63252 z m 1.3678752,0.03979 h 0.01292 0.175183 c 0.1693333,0 0.2909385,0.05031 0.2909385,0.306958 0,0.0029 -5.027e-4,0.0049 -5.292e-4,0.0078 -0.00235,0.248686 -0.1074346,0.278019 -0.2800863,0.278019 H 8.714749 8.5266469 Z"
       style="display:inline;stroke-width:0.264583;fill:#ff0000;fill-opacity:1;stroke:none" />
  </g>
</svg>
